<svg width="491" height="852" viewBox="0 0 491 852" fill="none" xmlns="http://www.w3.org/2000/svg">
<path d="M471.282 833.262C483.28 821.26 490.021 804.984 490.021 788.014C490.021 771.043 483.28 754.767 471.282 742.766L154.482 425.966L471.282 109.166C482.94 97.0951 489.391 80.9285 489.245 64.1479C489.1 47.3673 482.369 31.3153 470.503 19.4492C458.637 7.58308 442.585 0.852342 425.804 0.706524C409.023 0.560706 392.857 7.01154 380.786 18.6697L18.7383 380.718C6.74016 392.719 -1.93644e-05 408.995 -1.86226e-05 425.966C-1.78807e-05 442.936 6.74016 459.212 18.7383 471.214L380.786 833.262C392.788 845.26 409.064 852 426.034 852C443.005 852 459.281 845.26 471.282 833.262Z" fill="white"/>
</svg>
