<svg width="140" height="49" viewBox="0 0 140 49" fill="none" xmlns="http://www.w3.org/2000/svg">
<rect x="5" y="5" width="134" height="43" fill="#1E1E1E" stroke="#1E1E1E" stroke-width="2"/>
<rect x="1" y="1" width="134" height="43" fill="#FBADA5" stroke="#1E1E1E" stroke-width="2"/>
<path d="M49.7773 9.48047C50.3034 9.48047 50.7799 9.60026 51.207 9.83984C51.6341 10.0794 51.9688 10.4102 52.2109 10.832C52.4531 11.2513 52.5742 11.7201 52.5742 12.2383C52.5742 12.7565 52.4531 13.2266 52.2109 13.6484C51.9688 14.0703 51.6341 14.401 51.207 14.6406C50.7799 14.8802 50.3034 15 49.7773 15H47.6484V9.48047H49.7773ZM49.7695 14.3125C50.3529 14.3125 50.8411 14.1146 51.2344 13.7188C51.6276 13.3229 51.8242 12.8294 51.8242 12.2383C51.8242 11.8503 51.7344 11.4987 51.5547 11.1836C51.3776 10.8659 51.1315 10.6172 50.8164 10.4375C50.5039 10.2578 50.1549 10.168 49.7695 10.168H48.3828V14.3125H49.7695ZM55.4492 15.0977C55.043 15.0977 54.6732 15.0052 54.3398 14.8203C54.0065 14.6328 53.7448 14.3763 53.5547 14.0508C53.3672 13.7227 53.2734 13.3594 53.2734 12.9609C53.2734 12.5625 53.3672 12.2005 53.5547 11.875C53.7448 11.5469 54.0065 11.2904 54.3398 11.1055C54.6732 10.918 55.043 10.8242 55.4492 10.8242C56.0638 10.8242 56.5781 11.0286 56.9922 11.4375C57.4089 11.8464 57.6172 12.3542 57.6172 12.9609C57.6172 13.5677 57.4089 14.0755 56.9922 14.4844C56.5781 14.8932 56.0638 15.0977 55.4492 15.0977ZM55.4492 14.4336C55.8659 14.4336 56.2122 14.293 56.4883 14.0117C56.7669 13.7305 56.9062 13.3802 56.9062 12.9609C56.9062 12.5417 56.7669 12.1914 56.4883 11.9102C56.2122 11.6289 55.8659 11.4883 55.4492 11.4883C55.0299 11.4883 54.681 11.6289 54.4023 11.9102C54.1237 12.1914 53.9844 12.5417 53.9844 12.9609C53.9844 13.3802 54.1237 13.7305 54.4023 14.0117C54.681 14.293 55.0299 14.4336 55.4492 14.4336ZM63.7734 10.9219H64.5273L63.0312 15H62.3125L61.1836 11.7344L60.0547 15H59.3359L57.8398 10.9219H58.6133L59.7188 14.1602L60.8398 10.9219H61.543L62.6719 14.168L63.7734 10.9219ZM67.4062 10.8242C67.9036 10.8242 68.3034 10.9753 68.6055 11.2773C68.9102 11.5794 69.0625 11.9805 69.0625 12.4805V15H68.375V12.6953C68.375 12.3307 68.2669 12.0391 68.0508 11.8203C67.8346 11.599 67.5456 11.4883 67.1836 11.4883C66.806 11.4883 66.5039 11.6003 66.2773 11.8242C66.0508 12.0482 65.9375 12.3438 65.9375 12.7109V15H65.25V10.9219H65.9375V11.543C66.2682 11.0638 66.7578 10.8242 67.4062 10.8242ZM70.1797 15V9.23828H70.8672V15H70.1797ZM73.9414 15.0977C73.5352 15.0977 73.1654 15.0052 72.832 14.8203C72.4987 14.6328 72.237 14.3763 72.0469 14.0508C71.8594 13.7227 71.7656 13.3594 71.7656 12.9609C71.7656 12.5625 71.8594 12.2005 72.0469 11.875C72.237 11.5469 72.4987 11.2904 72.832 11.1055C73.1654 10.918 73.5352 10.8242 73.9414 10.8242C74.556 10.8242 75.0703 11.0286 75.4844 11.4375C75.901 11.8464 76.1094 12.3542 76.1094 12.9609C76.1094 13.5677 75.901 14.0755 75.4844 14.4844C75.0703 14.8932 74.556 15.0977 73.9414 15.0977ZM73.9414 14.4336C74.3581 14.4336 74.7044 14.293 74.9805 14.0117C75.2591 13.7305 75.3984 13.3802 75.3984 12.9609C75.3984 12.5417 75.2591 12.1914 74.9805 11.9102C74.7044 11.6289 74.3581 11.4883 73.9414 11.4883C73.5221 11.4883 73.1732 11.6289 72.8945 11.9102C72.6159 12.1914 72.4766 12.5417 72.4766 12.9609C72.4766 13.3802 72.6159 13.7305 72.8945 14.0117C73.1732 14.293 73.5221 14.4336 73.9414 14.4336ZM80.3906 10.9219H81.0781V15H80.3906V14.2656C80.2161 14.526 79.9909 14.7305 79.7148 14.8789C79.4414 15.0247 79.138 15.0977 78.8047 15.0977C78.4219 15.0977 78.0742 15.0052 77.7617 14.8203C77.4492 14.6328 77.2044 14.3763 77.0273 14.0508C76.8529 13.7227 76.7656 13.3594 76.7656 12.9609C76.7656 12.5625 76.8529 12.2005 77.0273 11.875C77.2044 11.5469 77.4492 11.2904 77.7617 11.1055C78.0742 10.918 78.4219 10.8242 78.8047 10.8242C79.138 10.8242 79.4414 10.8984 79.7148 11.0469C79.9909 11.1927 80.2161 11.3958 80.3906 11.6562V10.9219ZM78.9336 14.4336C79.3503 14.4336 79.6966 14.293 79.9727 14.0117C80.2513 13.7305 80.3906 13.3802 80.3906 12.9609C80.3906 12.5417 80.2513 12.1914 79.9727 11.9102C79.6966 11.6289 79.3503 11.4883 78.9336 11.4883C78.5143 11.4883 78.1654 11.6289 77.8867 11.9102C77.6081 12.1914 77.4688 12.5417 77.4688 12.9609C77.4688 13.3802 77.6081 13.7305 77.8867 14.0117C78.1654 14.293 78.5143 14.4336 78.9336 14.4336ZM85.625 9.23828H86.3125V15H85.625V14.2656C85.4505 14.526 85.2253 14.7305 84.9492 14.8789C84.6758 15.0247 84.3724 15.0977 84.0391 15.0977C83.6562 15.0977 83.3086 15.0052 82.9961 14.8203C82.6836 14.6328 82.4388 14.3763 82.2617 14.0508C82.0872 13.7227 82 13.3594 82 12.9609C82 12.5625 82.0872 12.2005 82.2617 11.875C82.4388 11.5469 82.6836 11.2904 82.9961 11.1055C83.3086 10.918 83.6562 10.8242 84.0391 10.8242C84.3724 10.8242 84.6758 10.8984 84.9492 11.0469C85.2253 11.1927 85.4505 11.3958 85.625 11.6562V9.23828ZM84.168 14.4336C84.5846 14.4336 84.931 14.293 85.207 14.0117C85.4857 13.7305 85.625 13.3802 85.625 12.9609C85.625 12.5417 85.4857 12.1914 85.207 11.9102C84.931 11.6289 84.5846 11.4883 84.168 11.4883C83.7487 11.4883 83.3997 11.6289 83.1211 11.9102C82.8424 12.1914 82.7031 12.5417 82.7031 12.9609C82.7031 13.3802 82.8424 13.7305 83.1211 14.0117C83.3997 14.293 83.7487 14.4336 84.168 14.4336ZM91.3711 15.0977C90.9648 15.0977 90.5951 15.0052 90.2617 14.8203C89.9284 14.6328 89.6667 14.3763 89.4766 14.0508C89.2891 13.7227 89.1953 13.3594 89.1953 12.9609C89.1953 12.5625 89.2891 12.2005 89.4766 11.875C89.6667 11.5469 89.9284 11.2904 90.2617 11.1055C90.5951 10.918 90.9648 10.8242 91.3711 10.8242C91.9857 10.8242 92.5 11.0286 92.9141 11.4375C93.3307 11.8464 93.5391 12.3542 93.5391 12.9609C93.5391 13.5677 93.3307 14.0755 92.9141 14.4844C92.5 14.8932 91.9857 15.0977 91.3711 15.0977ZM91.3711 14.4336C91.7878 14.4336 92.1341 14.293 92.4102 14.0117C92.6888 13.7305 92.8281 13.3802 92.8281 12.9609C92.8281 12.5417 92.6888 12.1914 92.4102 11.9102C92.1341 11.6289 91.7878 11.4883 91.3711 11.4883C90.9518 11.4883 90.6029 11.6289 90.3242 11.9102C90.0456 12.1914 89.9062 12.5417 89.9062 12.9609C89.9062 13.3802 90.0456 13.7305 90.3242 14.0117C90.6029 14.293 90.9518 14.4336 91.3711 14.4336ZM96.6016 10.8242C97.099 10.8242 97.4987 10.9753 97.8008 11.2773C98.1055 11.5794 98.2578 11.9805 98.2578 12.4805V15H97.5703V12.6953C97.5703 12.3307 97.4622 12.0391 97.2461 11.8203C97.0299 11.599 96.7409 11.4883 96.3789 11.4883C96.0013 11.4883 95.6992 11.6003 95.4727 11.8242C95.2461 12.0482 95.1328 12.3438 95.1328 12.7109V15H94.4453V10.9219H95.1328V11.543C95.4635 11.0638 95.9531 10.8242 96.6016 10.8242ZM103.703 11.543H102.477V13.8008C102.477 14.2227 102.695 14.4336 103.133 14.4336C103.323 14.4336 103.513 14.3828 103.703 14.2812V14.9297C103.497 15.0417 103.259 15.0977 102.988 15.0977C102.595 15.0977 102.297 14.9948 102.094 14.7891C101.891 14.5833 101.789 14.2904 101.789 13.9102V11.543H101.055V10.9219H101.789V9.82422H102.477V10.9219H103.703V11.543ZM106.742 10.8242C107.24 10.8242 107.639 10.9753 107.941 11.2773C108.246 11.5794 108.398 11.9805 108.398 12.4805V15H107.711V12.6953C107.711 12.3307 107.603 12.0391 107.387 11.8203C107.171 11.599 106.882 11.4883 106.52 11.4883C106.142 11.4883 105.84 11.6003 105.613 11.8242C105.387 12.0482 105.273 12.3438 105.273 12.7109V15H104.586V9.23828H105.273V11.5664C105.604 11.0716 106.094 10.8242 106.742 10.8242ZM113.523 12.9609C113.523 13 113.517 13.1016 113.504 13.2656H109.992C110.062 13.625 110.233 13.9154 110.504 14.1367C110.777 14.3555 111.111 14.4648 111.504 14.4648C111.796 14.4648 112.064 14.4036 112.309 14.2812C112.553 14.1562 112.745 13.9961 112.883 13.8008L113.355 14.207C113.15 14.4831 112.883 14.7005 112.555 14.8594C112.229 15.0182 111.871 15.0977 111.48 15.0977C110.842 15.0977 110.311 14.8919 109.887 14.4805C109.462 14.069 109.25 13.5573 109.25 12.9453C109.25 12.5495 109.342 12.1901 109.527 11.8672C109.715 11.5417 109.973 11.2865 110.301 11.1016C110.629 10.9167 110.993 10.8242 111.395 10.8242C111.793 10.8242 112.155 10.9167 112.48 11.1016C112.806 11.2865 113.061 11.543 113.246 11.8711C113.431 12.1966 113.523 12.5599 113.523 12.9609ZM111.387 11.457C111.033 11.457 110.727 11.5677 110.469 11.7891C110.211 12.0078 110.049 12.2917 109.984 12.6406H112.793C112.728 12.2865 112.566 12.0013 112.309 11.7852C112.051 11.5664 111.743 11.457 111.387 11.457Z" fill="#1E1E1E"/>
<path d="M47.6348 34L46.4307 30.9941H40.3486L39.1445 34H37.3779L42.4316 21.5811H44.4004L49.4541 34H47.6348ZM40.9639 29.4648H45.8242L43.3896 23.3652L40.9639 29.4648ZM56.2568 24.6045C57.5693 24.6045 58.665 25.0645 59.5439 25.9844C60.4229 26.9043 60.8623 28.0469 60.8623 29.4121C60.8623 30.7773 60.4229 31.9199 59.5439 32.8398C58.665 33.7598 57.5693 34.2197 56.2568 34.2197C55.5068 34.2197 54.8242 34.0557 54.209 33.7275C53.5938 33.3936 53.0898 32.9336 52.6973 32.3477V37.4189H51.1504V24.8242H52.6973V26.4766C53.0898 25.8906 53.5938 25.4336 54.209 25.1055C54.8242 24.7715 55.5068 24.6045 56.2568 24.6045ZM55.9668 32.7256C56.9102 32.7256 57.6953 32.4092 58.3223 31.7764C58.9492 31.1436 59.2627 30.3555 59.2627 29.4121C59.2627 28.4688 58.9492 27.6807 58.3223 27.0479C57.6953 26.415 56.9102 26.0986 55.9668 26.0986C55.0293 26.0986 54.25 26.415 53.6289 27.0479C53.0078 27.6807 52.6973 28.4688 52.6973 29.4121C52.6973 30.3555 53.0078 31.1436 53.6289 31.7764C54.25 32.4092 55.0293 32.7256 55.9668 32.7256ZM68.0342 24.6045C69.3467 24.6045 70.4424 25.0645 71.3213 25.9844C72.2002 26.9043 72.6396 28.0469 72.6396 29.4121C72.6396 30.7773 72.2002 31.9199 71.3213 32.8398C70.4424 33.7598 69.3467 34.2197 68.0342 34.2197C67.2842 34.2197 66.6016 34.0557 65.9863 33.7275C65.3711 33.3936 64.8672 32.9336 64.4746 32.3477V37.4189H62.9277V24.8242H64.4746V26.4766C64.8672 25.8906 65.3711 25.4336 65.9863 25.1055C66.6016 24.7715 67.2842 24.6045 68.0342 24.6045ZM67.7441 32.7256C68.6875 32.7256 69.4727 32.4092 70.0996 31.7764C70.7266 31.1436 71.04 30.3555 71.04 29.4121C71.04 28.4688 70.7266 27.6807 70.0996 27.0479C69.4727 26.415 68.6875 26.0986 67.7441 26.0986C66.8066 26.0986 66.0273 26.415 65.4062 27.0479C64.7852 27.6807 64.4746 28.4688 64.4746 29.4121C64.4746 30.3555 64.7852 31.1436 65.4062 31.7764C66.0273 32.4092 66.8066 32.7256 67.7441 32.7256ZM83.3271 34.2197C82.4014 34.2197 81.502 34.0439 80.6289 33.6924C79.7559 33.335 79.0293 32.8545 78.4492 32.251L79.3281 31.0117C79.8086 31.5273 80.4062 31.9463 81.1211 32.2686C81.8359 32.585 82.5713 32.7432 83.3271 32.7432C84.1533 32.7432 84.8477 32.5527 85.4102 32.1719C85.9727 31.7852 86.2539 31.2959 86.2539 30.7041C86.2539 30.54 86.2275 30.3848 86.1748 30.2383C86.1221 30.0859 86.0605 29.9541 85.9902 29.8428C85.9199 29.7256 85.8145 29.6143 85.6738 29.5088C85.5332 29.3975 85.4102 29.3066 85.3047 29.2363C85.2051 29.166 85.0557 29.0928 84.8564 29.0166C84.6572 28.9346 84.5049 28.876 84.3994 28.8408C84.2998 28.7998 84.1357 28.75 83.9072 28.6914C83.6846 28.627 83.5381 28.5859 83.4678 28.5684C83.3975 28.5508 83.2539 28.5186 83.0371 28.4717C82.5918 28.3779 82.1758 28.2666 81.7891 28.1377C81.4082 28.0029 81.0303 27.833 80.6553 27.6279C80.2861 27.417 79.9697 27.1855 79.7061 26.9336C79.4482 26.6758 79.2402 26.3652 79.082 26.002C78.9238 25.6387 78.8447 25.2461 78.8447 24.8242C78.8447 23.793 79.2549 22.958 80.0752 22.3193C80.9014 21.6807 81.9648 21.3613 83.2656 21.3613C84.1211 21.3613 84.9033 21.502 85.6123 21.7832C86.3271 22.0645 86.9072 22.4453 87.3525 22.9258L86.5615 24.1562C86.2217 23.7812 85.75 23.4678 85.1465 23.2158C84.5488 22.9639 83.916 22.8379 83.248 22.8379C82.4629 22.8379 81.8125 23.0195 81.2969 23.3828C80.7871 23.7402 80.5322 24.2002 80.5322 24.7627C80.5322 25.7822 81.5225 26.4971 83.5029 26.9072C83.7197 26.9482 83.9277 26.9951 84.127 27.0479C84.332 27.1006 84.5898 27.1797 84.9004 27.2852C85.2168 27.3906 85.5039 27.5078 85.7617 27.6367C86.0254 27.7598 86.2949 27.9209 86.5703 28.1201C86.8516 28.3193 87.0889 28.5361 87.2822 28.7705C87.4756 28.999 87.6338 29.2744 87.7568 29.5967C87.8857 29.9189 87.9502 30.2646 87.9502 30.6338C87.9502 31.6826 87.5078 32.5439 86.623 33.2178C85.7441 33.8857 84.6455 34.2197 83.3271 34.2197ZM94.9375 26.2217H92.1777V31.3018C92.1777 32.251 92.6699 32.7256 93.6543 32.7256C94.082 32.7256 94.5098 32.6113 94.9375 32.3828V33.8418C94.4746 34.0938 93.9385 34.2197 93.3291 34.2197C92.4443 34.2197 91.7734 33.9883 91.3164 33.5254C90.8594 33.0625 90.6309 32.4033 90.6309 31.5479V26.2217H88.9785V24.8242H90.6309V22.3545H92.1777V24.8242H94.9375V26.2217ZM100.853 34.2197C99.9385 34.2197 99.1064 34.0117 98.3564 33.5957C97.6064 33.1738 97.0176 32.5967 96.5898 31.8643C96.168 31.126 95.957 30.3086 95.957 29.4121C95.957 28.5156 96.168 27.7012 96.5898 26.9688C97.0176 26.2305 97.6064 25.6533 98.3564 25.2373C99.1064 24.8154 99.9385 24.6045 100.853 24.6045C102.235 24.6045 103.393 25.0645 104.324 25.9844C105.262 26.9043 105.73 28.0469 105.73 29.4121C105.73 30.7773 105.262 31.9199 104.324 32.8398C103.393 33.7598 102.235 34.2197 100.853 34.2197ZM100.853 32.7256C101.79 32.7256 102.569 32.4092 103.19 31.7764C103.817 31.1436 104.131 30.3555 104.131 29.4121C104.131 28.4688 103.817 27.6807 103.19 27.0479C102.569 26.415 101.79 26.0986 100.853 26.0986C99.9092 26.0986 99.124 26.415 98.4971 27.0479C97.8701 27.6807 97.5566 28.4688 97.5566 29.4121C97.5566 30.3555 97.8701 31.1436 98.4971 31.7764C99.124 32.4092 99.9092 32.7256 100.853 32.7256ZM112.445 24.6748H112.753V26.2744H112.445C111.479 26.2744 110.714 26.5586 110.151 27.127C109.595 27.6895 109.316 28.4512 109.316 29.4121V34H107.77V24.8242H109.316V26.4062C110.037 25.252 111.08 24.6748 112.445 24.6748ZM123.027 29.4121C123.027 29.5 123.013 29.7285 122.983 30.0977H115.082C115.24 30.9062 115.624 31.5596 116.233 32.0576C116.849 32.5498 117.599 32.7959 118.483 32.7959C119.14 32.7959 119.743 32.6582 120.294 32.3828C120.845 32.1016 121.275 31.7412 121.586 31.3018L122.649 32.2158C122.187 32.8369 121.586 33.3262 120.848 33.6836C120.115 34.041 119.31 34.2197 118.431 34.2197C116.995 34.2197 115.8 33.7568 114.845 32.8311C113.89 31.9053 113.412 30.7539 113.412 29.377C113.412 28.4863 113.62 27.6777 114.036 26.9512C114.458 26.2188 115.038 25.6445 115.776 25.2285C116.515 24.8125 117.335 24.6045 118.237 24.6045C119.134 24.6045 119.948 24.8125 120.681 25.2285C121.413 25.6445 121.987 26.2217 122.403 26.96C122.819 27.6924 123.027 28.5098 123.027 29.4121ZM118.22 26.0283C117.423 26.0283 116.734 26.2773 116.154 26.7754C115.574 27.2676 115.211 27.9062 115.064 28.6914H121.384C121.237 27.8945 120.874 27.2529 120.294 26.7666C119.714 26.2744 119.022 26.0283 118.22 26.0283Z" fill="#1E1E1E"/>
<path d="M29.5741 23.2079C29.5598 20.5399 30.7505 18.5261 33.1607 17.043C31.8122 15.0874 29.775 14.0115 27.085 13.8006C24.5385 13.5971 21.7553 15.3055 20.7367 15.3055C19.6607 15.3055 17.1931 13.8733 15.2564 13.8733C11.2537 13.9388 7 17.1084 7 23.5569C7 25.4616 7.34431 27.4293 8.03294 29.4601C8.95112 32.1281 12.2651 38.671 15.7226 38.562C17.5303 38.5184 18.8071 37.2607 21.1599 37.2607C23.441 37.2607 24.6246 38.562 26.6403 38.562C30.1265 38.5111 33.1249 32.5643 34 29.889C29.3231 27.6571 29.5741 23.346 29.5741 23.2079ZM25.5141 11.2707C27.4724 8.91524 27.293 6.77061 27.2357 6C25.5069 6.10178 23.5056 7.19227 22.365 8.5372C21.1097 9.97665 20.3709 11.7578 20.5287 13.7643C22.4009 13.9097 24.1081 12.9355 25.5141 11.2707Z" fill="#1E1E1E"/>
</svg>
