<svg width="159" height="49" viewBox="0 0 159 49" fill="none" xmlns="http://www.w3.org/2000/svg">
<rect x="4.5" y="4.5" width="154" height="44" fill="#1E1E1E" stroke="#1E1E1E"/>
<rect x="1" y="1" width="153" height="43" fill="white" stroke="#1E1E1E" stroke-width="2"/>
<path d="M31.5547 16.9609C32.6068 16.9609 33.5599 17.2005 34.4141 17.6797C35.2682 18.1589 35.9375 18.8203 36.4219 19.6641C36.9062 20.5026 37.1484 21.4401 37.1484 22.4766C37.1484 23.513 36.9062 24.4531 36.4219 25.2969C35.9375 26.1406 35.2682 26.8021 34.4141 27.2812C33.5599 27.7604 32.6068 28 31.5547 28H27.2969V16.9609H31.5547ZM31.5391 26.625C32.7057 26.625 33.6823 26.2292 34.4688 25.4375C35.2552 24.6458 35.6484 23.6589 35.6484 22.4766C35.6484 21.7005 35.4688 20.9974 35.1094 20.3672C34.7552 19.7318 34.263 19.2344 33.6328 18.875C33.0078 18.5156 32.3099 18.3359 31.5391 18.3359H28.7656V26.625H31.5391ZM42.8984 28.1953C42.0859 28.1953 41.3464 28.0104 40.6797 27.6406C40.013 27.2656 39.4896 26.7526 39.1094 26.1016C38.7344 25.4453 38.5469 24.7188 38.5469 23.9219C38.5469 23.125 38.7344 22.401 39.1094 21.75C39.4896 21.0938 40.013 20.5807 40.6797 20.2109C41.3464 19.8359 42.0859 19.6484 42.8984 19.6484C44.1276 19.6484 45.1562 20.0573 45.9844 20.875C46.8177 21.6927 47.2344 22.7083 47.2344 23.9219C47.2344 25.1354 46.8177 26.151 45.9844 26.9688C45.1562 27.7865 44.1276 28.1953 42.8984 28.1953ZM42.8984 26.8672C43.7318 26.8672 44.4245 26.5859 44.9766 26.0234C45.5339 25.4609 45.8125 24.7604 45.8125 23.9219C45.8125 23.0833 45.5339 22.3828 44.9766 21.8203C44.4245 21.2578 43.7318 20.9766 42.8984 20.9766C42.0599 20.9766 41.362 21.2578 40.8047 21.8203C40.2474 22.3828 39.9688 23.0833 39.9688 23.9219C39.9688 24.7604 40.2474 25.4609 40.8047 26.0234C41.362 26.5859 42.0599 26.8672 42.8984 26.8672ZM59.5469 19.8438H61.0547L58.0625 28H56.625L54.3672 21.4688L52.1094 28H50.6719L47.6797 19.8438H49.2266L51.4375 26.3203L53.6797 19.8438H55.0859L57.3438 26.3359L59.5469 19.8438ZM66.8125 19.6484C67.8073 19.6484 68.6068 19.9505 69.2109 20.5547C69.8203 21.1589 70.125 21.9609 70.125 22.9609V28H68.75V23.3906C68.75 22.6615 68.5339 22.0781 68.1016 21.6406C67.6693 21.1979 67.0911 20.9766 66.3672 20.9766C65.612 20.9766 65.0078 21.2005 64.5547 21.6484C64.1016 22.0964 63.875 22.6875 63.875 23.4219V28H62.5V19.8438H63.875V21.0859C64.5365 20.1276 65.5156 19.6484 66.8125 19.6484ZM72.3594 28V16.4766H73.7344V28H72.3594ZM79.8828 28.1953C79.0703 28.1953 78.3307 28.0104 77.6641 27.6406C76.9974 27.2656 76.474 26.7526 76.0938 26.1016C75.7188 25.4453 75.5312 24.7188 75.5312 23.9219C75.5312 23.125 75.7188 22.401 76.0938 21.75C76.474 21.0938 76.9974 20.5807 77.6641 20.2109C78.3307 19.8359 79.0703 19.6484 79.8828 19.6484C81.112 19.6484 82.1406 20.0573 82.9688 20.875C83.8021 21.6927 84.2188 22.7083 84.2188 23.9219C84.2188 25.1354 83.8021 26.151 82.9688 26.9688C82.1406 27.7865 81.112 28.1953 79.8828 28.1953ZM79.8828 26.8672C80.7161 26.8672 81.4089 26.5859 81.9609 26.0234C82.5182 25.4609 82.7969 24.7604 82.7969 23.9219C82.7969 23.0833 82.5182 22.3828 81.9609 21.8203C81.4089 21.2578 80.7161 20.9766 79.8828 20.9766C79.0443 20.9766 78.3464 21.2578 77.7891 21.8203C77.2318 22.3828 76.9531 23.0833 76.9531 23.9219C76.9531 24.7604 77.2318 25.4609 77.7891 26.0234C78.3464 26.5859 79.0443 26.8672 79.8828 26.8672ZM92.7812 19.8438H94.1562V28H92.7812V26.5312C92.4323 27.0521 91.9818 27.4609 91.4297 27.7578C90.8828 28.0495 90.276 28.1953 89.6094 28.1953C88.8438 28.1953 88.1484 28.0104 87.5234 27.6406C86.8984 27.2656 86.4089 26.7526 86.0547 26.1016C85.7057 25.4453 85.5312 24.7188 85.5312 23.9219C85.5312 23.125 85.7057 22.401 86.0547 21.75C86.4089 21.0938 86.8984 20.5807 87.5234 20.2109C88.1484 19.8359 88.8438 19.6484 89.6094 19.6484C90.276 19.6484 90.8828 19.7969 91.4297 20.0938C91.9818 20.3854 92.4323 20.7917 92.7812 21.3125V19.8438ZM89.8672 26.8672C90.7005 26.8672 91.3932 26.5859 91.9453 26.0234C92.5026 25.4609 92.7812 24.7604 92.7812 23.9219C92.7812 23.0833 92.5026 22.3828 91.9453 21.8203C91.3932 21.2578 90.7005 20.9766 89.8672 20.9766C89.0286 20.9766 88.3307 21.2578 87.7734 21.8203C87.2161 22.3828 86.9375 23.0833 86.9375 23.9219C86.9375 24.7604 87.2161 25.4609 87.7734 26.0234C88.3307 26.5859 89.0286 26.8672 89.8672 26.8672ZM103.25 16.4766H104.625V28H103.25V26.5312C102.901 27.0521 102.451 27.4609 101.898 27.7578C101.352 28.0495 100.745 28.1953 100.078 28.1953C99.3125 28.1953 98.6172 28.0104 97.9922 27.6406C97.3672 27.2656 96.8776 26.7526 96.5234 26.1016C96.1745 25.4453 96 24.7188 96 23.9219C96 23.125 96.1745 22.401 96.5234 21.75C96.8776 21.0938 97.3672 20.5807 97.9922 20.2109C98.6172 19.8359 99.3125 19.6484 100.078 19.6484C100.745 19.6484 101.352 19.7969 101.898 20.0938C102.451 20.3854 102.901 20.7917 103.25 21.3125V16.4766ZM100.336 26.8672C101.169 26.8672 101.862 26.5859 102.414 26.0234C102.971 25.4609 103.25 24.7604 103.25 23.9219C103.25 23.0833 102.971 22.3828 102.414 21.8203C101.862 21.2578 101.169 20.9766 100.336 20.9766C99.4974 20.9766 98.7995 21.2578 98.2422 21.8203C97.6849 22.3828 97.4062 23.0833 97.4062 23.9219C97.4062 24.7604 97.6849 25.4609 98.2422 26.0234C98.7995 26.5859 99.4974 26.8672 100.336 26.8672ZM119.203 28L118.133 25.3281H112.727L111.656 28H110.086L114.578 16.9609H116.328L120.82 28H119.203ZM113.273 23.9688H117.594L115.43 18.5469L113.273 23.9688ZM126.867 19.6484C128.034 19.6484 129.008 20.0573 129.789 20.875C130.57 21.6927 130.961 22.7083 130.961 23.9219C130.961 25.1354 130.57 26.151 129.789 26.9688C129.008 27.7865 128.034 28.1953 126.867 28.1953C126.201 28.1953 125.594 28.0495 125.047 27.7578C124.5 27.4609 124.052 27.0521 123.703 26.5312V31.0391H122.328V19.8438H123.703V21.3125C124.052 20.7917 124.5 20.3854 125.047 20.0938C125.594 19.7969 126.201 19.6484 126.867 19.6484ZM126.609 26.8672C127.448 26.8672 128.146 26.5859 128.703 26.0234C129.26 25.4609 129.539 24.7604 129.539 23.9219C129.539 23.0833 129.26 22.3828 128.703 21.8203C128.146 21.2578 127.448 20.9766 126.609 20.9766C125.776 20.9766 125.083 21.2578 124.531 21.8203C123.979 22.3828 123.703 23.0833 123.703 23.9219C123.703 24.7604 123.979 25.4609 124.531 26.0234C125.083 26.5859 125.776 26.8672 126.609 26.8672ZM137.336 19.6484C138.503 19.6484 139.477 20.0573 140.258 20.875C141.039 21.6927 141.43 22.7083 141.43 23.9219C141.43 25.1354 141.039 26.151 140.258 26.9688C139.477 27.7865 138.503 28.1953 137.336 28.1953C136.669 28.1953 136.062 28.0495 135.516 27.7578C134.969 27.4609 134.521 27.0521 134.172 26.5312V31.0391H132.797V19.8438H134.172V21.3125C134.521 20.7917 134.969 20.3854 135.516 20.0938C136.062 19.7969 136.669 19.6484 137.336 19.6484ZM137.078 26.8672C137.917 26.8672 138.615 26.5859 139.172 26.0234C139.729 25.4609 140.008 24.7604 140.008 23.9219C140.008 23.0833 139.729 22.3828 139.172 21.8203C138.615 21.2578 137.917 20.9766 137.078 20.9766C136.245 20.9766 135.552 21.2578 135 21.8203C134.448 22.3828 134.172 23.0833 134.172 23.9219C134.172 24.7604 134.448 25.4609 135 26.0234C135.552 26.5859 136.245 26.8672 137.078 26.8672Z" fill="#1E1E1E"/>
</svg>
