<svg width="154" height="49" viewBox="0 0 154 49" fill="none" xmlns="http://www.w3.org/2000/svg">
<rect x="5" y="5" width="148" height="43" fill="#1E1E1E" stroke="#1E1E1E" stroke-width="2"/>
<rect x="1" y="1" width="148" height="43" fill="#CEFE20" stroke="black" stroke-width="2"/>
<path d="M41.4336 12.0625H44.0156V12.3047C44.0156 12.7005 43.9453 13.0716 43.8047 13.418C43.6641 13.7643 43.4701 14.0612 43.2227 14.3086C42.9779 14.5534 42.6823 14.7461 42.3359 14.8867C41.9896 15.0273 41.6185 15.0977 41.2227 15.0977C40.8216 15.0977 40.4427 15.0247 40.0859 14.8789C39.7318 14.7305 39.4271 14.5299 39.1719 14.2773C38.9193 14.0247 38.7188 13.7227 38.5703 13.3711C38.4245 13.0169 38.3516 12.6393 38.3516 12.2383C38.3516 11.7044 38.4766 11.2201 38.7266 10.7852C38.9766 10.3477 39.3216 10.0052 39.7617 9.75781C40.2044 9.50781 40.6966 9.38281 41.2383 9.38281C41.7253 9.38281 42.1732 9.48438 42.582 9.6875C42.9935 9.89062 43.3242 10.1706 43.5742 10.5273L43.0234 10.9609C42.8281 10.6875 42.5755 10.4727 42.2656 10.3164C41.9583 10.1576 41.6224 10.0781 41.2578 10.0781C40.8568 10.0781 40.4909 10.1719 40.1602 10.3594C39.832 10.5469 39.5742 10.806 39.3867 11.1367C39.1992 11.4674 39.1055 11.8346 39.1055 12.2383C39.1055 12.8529 39.3099 13.3672 39.7188 13.7812C40.1302 14.1927 40.6393 14.3984 41.2461 14.3984C41.7773 14.3984 42.2305 14.2409 42.6055 13.9258C42.9831 13.6081 43.2005 13.2031 43.2578 12.7109H41.4336V12.0625ZM45.7109 14.3125H48.6328V15H44.9766V9.48047H48.5938V10.168H45.7109V11.8789H48.3281V12.5664H45.7109V14.3125ZM53.5352 9.48047V10.168H51.7656V15H51.0391V10.168H49.2695V9.48047H53.5352ZM56.3984 15V9.48047H57.1328V15H56.3984ZM62.2773 9.48047V10.168H60.5078V15H59.7812V10.168H58.0117V9.48047H62.2773ZM67.7305 15.0977C67.3242 15.0977 66.9427 15.0247 66.5859 14.8789C66.2292 14.7305 65.9232 14.5299 65.668 14.2773C65.4128 14.0247 65.2109 13.7227 65.0625 13.3711C64.9167 13.0169 64.8438 12.6393 64.8438 12.2383C64.8438 11.7044 64.9688 11.2201 65.2188 10.7852C65.4688 10.3477 65.8138 10.0052 66.2539 9.75781C66.6966 9.50781 67.1888 9.38281 67.7305 9.38281C68.2721 9.38281 68.763 9.50781 69.2031 9.75781C69.6458 10.0052 69.9922 10.3477 70.2422 10.7852C70.4948 11.2201 70.6211 11.7044 70.6211 12.2383C70.6211 12.7721 70.4948 13.2578 70.2422 13.6953C69.9922 14.1328 69.6458 14.4766 69.2031 14.7266C68.763 14.974 68.2721 15.0977 67.7305 15.0977ZM66.6406 14.1094C66.9688 14.2969 67.332 14.3906 67.7305 14.3906C68.1289 14.3906 68.4909 14.2969 68.8164 14.1094C69.1445 13.9219 69.401 13.6641 69.5859 13.3359C69.7734 13.0052 69.8672 12.6393 69.8672 12.2383C69.8672 11.8372 69.7734 11.4727 69.5859 11.1445C69.401 10.8138 69.1445 10.556 68.8164 10.3711C68.4909 10.1836 68.1289 10.0898 67.7305 10.0898C67.431 10.0898 67.1484 10.1445 66.8828 10.2539C66.6198 10.3633 66.3945 10.513 66.207 10.7031C66.0195 10.8932 65.8711 11.1211 65.7617 11.3867C65.6523 11.6523 65.5977 11.9362 65.5977 12.2383C65.5977 12.6393 65.6901 13.0052 65.875 13.3359C66.0599 13.6641 66.3151 13.9219 66.6406 14.1094ZM75.4961 9.48047H76.2266V15H75.4727L72.3516 10.7031V15H71.6172V9.48047H72.375L75.4961 13.793V9.48047Z" fill="#1E1E1E"/>
<path d="M45.7256 27.3906H51.5352V27.9355C51.5352 28.8262 51.377 29.6611 51.0605 30.4404C50.7441 31.2197 50.3076 31.8877 49.751 32.4443C49.2002 32.9951 48.5352 33.4287 47.7559 33.7451C46.9766 34.0615 46.1416 34.2197 45.251 34.2197C44.3486 34.2197 43.4961 34.0557 42.6934 33.7275C41.8965 33.3936 41.2109 32.9424 40.6367 32.374C40.0684 31.8057 39.6172 31.126 39.2832 30.335C38.9551 29.5381 38.791 28.6885 38.791 27.7861C38.791 26.585 39.0723 25.4951 39.6348 24.5166C40.1973 23.5322 40.9736 22.7617 41.9639 22.2051C42.96 21.6426 44.0674 21.3613 45.2861 21.3613C46.3818 21.3613 47.3896 21.5898 48.3096 22.0469C49.2354 22.5039 49.9795 23.1338 50.542 23.9365L49.3027 24.9121C48.8633 24.2969 48.2949 23.8135 47.5977 23.4619C46.9062 23.1045 46.1504 22.9258 45.3301 22.9258C44.4277 22.9258 43.6045 23.1367 42.8604 23.5586C42.1221 23.9805 41.542 24.5635 41.1201 25.3076C40.6982 26.0518 40.4873 26.8779 40.4873 27.7861C40.4873 29.1689 40.9473 30.3262 41.8672 31.2578C42.793 32.1836 43.9385 32.6465 45.3037 32.6465C46.499 32.6465 47.5186 32.292 48.3623 31.583C49.2119 30.8682 49.7012 29.957 49.8301 28.8496H45.7256V27.3906ZM57.9248 34.2197C57.0107 34.2197 56.1787 34.0117 55.4287 33.5957C54.6787 33.1738 54.0898 32.5967 53.6621 31.8643C53.2402 31.126 53.0293 30.3086 53.0293 29.4121C53.0293 28.5156 53.2402 27.7012 53.6621 26.9688C54.0898 26.2305 54.6787 25.6533 55.4287 25.2373C56.1787 24.8154 57.0107 24.6045 57.9248 24.6045C59.3076 24.6045 60.4648 25.0645 61.3965 25.9844C62.334 26.9043 62.8027 28.0469 62.8027 29.4121C62.8027 30.7773 62.334 31.9199 61.3965 32.8398C60.4648 33.7598 59.3076 34.2197 57.9248 34.2197ZM57.9248 32.7256C58.8623 32.7256 59.6416 32.4092 60.2627 31.7764C60.8896 31.1436 61.2031 30.3555 61.2031 29.4121C61.2031 28.4688 60.8896 27.6807 60.2627 27.0479C59.6416 26.415 58.8623 26.0986 57.9248 26.0986C56.9814 26.0986 56.1963 26.415 55.5693 27.0479C54.9424 27.6807 54.6289 28.4688 54.6289 29.4121C54.6289 30.3555 54.9424 31.1436 55.5693 31.7764C56.1963 32.4092 56.9814 32.7256 57.9248 32.7256ZM69.1396 34.2197C68.2256 34.2197 67.3936 34.0117 66.6436 33.5957C65.8936 33.1738 65.3047 32.5967 64.877 31.8643C64.4551 31.126 64.2441 30.3086 64.2441 29.4121C64.2441 28.5156 64.4551 27.7012 64.877 26.9688C65.3047 26.2305 65.8936 25.6533 66.6436 25.2373C67.3936 24.8154 68.2256 24.6045 69.1396 24.6045C70.5225 24.6045 71.6797 25.0645 72.6113 25.9844C73.5488 26.9043 74.0176 28.0469 74.0176 29.4121C74.0176 30.7773 73.5488 31.9199 72.6113 32.8398C71.6797 33.7598 70.5225 34.2197 69.1396 34.2197ZM69.1396 32.7256C70.0771 32.7256 70.8564 32.4092 71.4775 31.7764C72.1045 31.1436 72.418 30.3555 72.418 29.4121C72.418 28.4688 72.1045 27.6807 71.4775 27.0479C70.8564 26.415 70.0771 26.0986 69.1396 26.0986C68.1963 26.0986 67.4111 26.415 66.7842 27.0479C66.1572 27.6807 65.8438 28.4688 65.8438 29.4121C65.8438 30.3555 66.1572 31.1436 66.7842 31.7764C67.4111 32.4092 68.1963 32.7256 69.1396 32.7256ZM81.7607 34.2373C82.6338 34.2373 83.3516 34.457 83.9141 34.8965C84.4766 35.3359 84.8018 35.9365 84.8896 36.6982L83.29 37.1113C83.2725 36.7012 83.0967 36.3701 82.7627 36.1182C82.4346 35.8721 82.0098 35.749 81.4883 35.749H78.1045C77.3428 35.749 76.7246 35.5469 76.25 35.1426C75.7812 34.7383 75.5469 34.2139 75.5469 33.5693C75.5469 33.1357 75.6465 32.7314 75.8457 32.3564C76.0508 31.9756 76.3291 31.6885 76.6807 31.4951C76.2822 31.126 75.9717 30.6924 75.749 30.1943C75.5322 29.6963 75.4238 29.1602 75.4238 28.5859C75.4238 27.4492 75.8223 26.5029 76.6191 25.7471C77.4219 24.9854 78.4209 24.6045 79.6162 24.6045C80.4307 24.6045 81.1807 24.8037 81.8662 25.2021C81.9541 24.7158 82.1855 24.3291 82.5605 24.042C82.9355 23.7549 83.4014 23.6113 83.958 23.6113H84.6611V25.0527H84.0459C83.7119 25.0527 83.4395 25.1465 83.2285 25.334C83.0234 25.5156 82.918 25.7588 82.9121 26.0635C83.5098 26.7725 83.8086 27.6133 83.8086 28.5859C83.8086 29.7168 83.4072 30.666 82.6045 31.4336C81.8018 32.1953 80.8057 32.5762 79.6162 32.5762C78.8955 32.5762 78.248 32.4326 77.6738 32.1455C77.4922 32.2627 77.3486 32.415 77.2432 32.6025C77.1436 32.7842 77.0938 32.9746 77.0938 33.1738C77.0938 33.4961 77.2139 33.7539 77.4541 33.9473C77.6943 34.1406 78.0078 34.2373 78.3945 34.2373H81.7607ZM79.6162 26.0811C78.8721 26.0811 78.2539 26.3213 77.7617 26.8018C77.2695 27.2764 77.0234 27.8711 77.0234 28.5859C77.0234 29.3066 77.2695 29.9072 77.7617 30.3877C78.2598 30.8623 78.8779 31.0996 79.6162 31.0996C80.3545 31.0996 80.9697 30.8623 81.4619 30.3877C81.96 29.9072 82.209 29.3066 82.209 28.5859C82.209 27.8711 81.96 27.2764 81.4619 26.8018C80.9697 26.3213 80.3545 26.0811 79.6162 26.0811ZM86.0938 34V21.0361H87.6406V34H86.0938ZM99.2773 29.4121C99.2773 29.5 99.2627 29.7285 99.2334 30.0977H91.332C91.4902 30.9062 91.874 31.5596 92.4834 32.0576C93.0986 32.5498 93.8486 32.7959 94.7334 32.7959C95.3896 32.7959 95.9932 32.6582 96.5439 32.3828C97.0947 32.1016 97.5254 31.7412 97.8359 31.3018L98.8994 32.2158C98.4365 32.8369 97.8359 33.3262 97.0977 33.6836C96.3652 34.041 95.5596 34.2197 94.6807 34.2197C93.2451 34.2197 92.0498 33.7568 91.0947 32.8311C90.1396 31.9053 89.6621 30.7539 89.6621 29.377C89.6621 28.4863 89.8701 27.6777 90.2861 26.9512C90.708 26.2188 91.2881 25.6445 92.0264 25.2285C92.7646 24.8125 93.585 24.6045 94.4873 24.6045C95.3838 24.6045 96.1982 24.8125 96.9307 25.2285C97.6631 25.6445 98.2373 26.2217 98.6533 26.96C99.0693 27.6924 99.2773 28.5098 99.2773 29.4121ZM94.4697 26.0283C93.6729 26.0283 92.9844 26.2773 92.4043 26.7754C91.8242 27.2676 91.4609 27.9062 91.3145 28.6914H97.6338C97.4873 27.8945 97.124 27.2529 96.5439 26.7666C95.9639 26.2744 95.2725 26.0283 94.4697 26.0283ZM110.967 21.5811C112.104 21.5811 113.05 21.9531 113.806 22.6973C114.562 23.4414 114.939 24.3701 114.939 25.4834C114.939 26.5908 114.559 27.5166 113.797 28.2607C113.041 29.0049 112.098 29.377 110.967 29.377H107.504V34H105.852V21.5811H110.967ZM110.923 27.8301C111.591 27.8301 112.145 27.6074 112.584 27.1621C113.029 26.7168 113.252 26.1572 113.252 25.4834C113.252 24.8096 113.029 24.25 112.584 23.8047C112.145 23.3535 111.591 23.1279 110.923 23.1279H107.504V27.8301H110.923ZM116.838 34V21.0361H118.385V34H116.838ZM128.598 24.8242H130.145V34H128.598V32.3477C128.205 32.9336 127.698 33.3936 127.077 33.7275C126.462 34.0557 125.779 34.2197 125.029 34.2197C124.168 34.2197 123.386 34.0117 122.683 33.5957C121.979 33.1738 121.429 32.5967 121.03 31.8643C120.638 31.126 120.441 30.3086 120.441 29.4121C120.441 28.5156 120.638 27.7012 121.03 26.9688C121.429 26.2305 121.979 25.6533 122.683 25.2373C123.386 24.8154 124.168 24.6045 125.029 24.6045C125.779 24.6045 126.462 24.7715 127.077 25.1055C127.698 25.4336 128.205 25.8906 128.598 26.4766V24.8242ZM125.319 32.7256C126.257 32.7256 127.036 32.4092 127.657 31.7764C128.284 31.1436 128.598 30.3555 128.598 29.4121C128.598 28.4688 128.284 27.6807 127.657 27.0479C127.036 26.415 126.257 26.0986 125.319 26.0986C124.376 26.0986 123.591 26.415 122.964 27.0479C122.337 27.6807 122.023 28.4688 122.023 29.4121C122.023 30.3555 122.337 31.1436 122.964 31.7764C123.591 32.4092 124.376 32.7256 125.319 32.7256ZM139.689 24.8242H141.421L136.464 35.9424C136.235 36.4756 135.91 36.8916 135.488 37.1904C135.072 37.4893 134.612 37.6387 134.108 37.6387C133.745 37.6387 133.367 37.5566 132.975 37.3926C132.588 37.2285 132.263 37.0146 131.999 36.751L132.649 35.5645C132.995 35.9512 133.402 36.1445 133.871 36.1445C134.387 36.1445 134.779 35.8691 135.049 35.3184L135.708 33.9473L131.718 24.8242H133.493L136.596 32.1455L139.689 24.8242Z" fill="#1E1E1E"/>
<path d="M31.3296 20.5892L12.3324 9.15385C12.0524 8.98646 11.7354 8.89944 11.4133 8.90153C11.0911 8.90361 10.7752 8.99474 10.4972 9.16574C10.2248 9.33093 9.99872 9.56858 9.84161 9.85478C9.68451 10.141 9.60196 10.4656 9.6023 10.796V33.6666C9.60529 34.1695 9.79757 34.6507 10.1372 35.0052C10.4767 35.3597 10.936 35.5586 11.4148 35.5586C11.7358 35.5575 12.0513 35.4715 12.3324 35.3087L31.3296 23.8734C31.6111 23.713 31.8461 23.4758 32.0099 23.1868C32.1736 22.8977 32.2601 22.5676 32.2601 22.2313C32.2601 21.8949 32.1736 21.5648 32.0099 21.2758C31.8461 20.9868 31.6111 20.7496 31.3296 20.5892ZM22.3125 23.5759L24.4535 25.8249L14.4621 31.8222L22.3125 23.5759ZM14.4621 12.6285L24.4535 18.6377L22.3125 20.8867L14.4621 12.6285ZM26.0734 24.8373L23.5925 22.2313L26.0734 19.6253L30.4234 22.2313L26.0734 24.8373Z" fill="#1E1E1E"/>
</svg>
